<svg width="48" height="48" viewBox="0 0 48 48" fill="none" xmlns="http://www.w3.org/2000/svg">
<path d="M27.5 41.5C27.5 41.9138 27.3191 42.4182 26.7695 43.0007C26.2124 43.5912 25.3361 44.191 24.1395 44.7274C21.7496 45.7987 18.3429 46.5 14.5 46.5C10.6571 46.5 7.25037 45.7987 4.86054 44.7274C3.66391 44.191 2.78765 43.5912 2.2305 43.0007C1.68088 42.4182 1.5 41.9138 1.5 41.5C1.5 41.0862 1.68088 40.5818 2.2305 39.9993C2.78765 39.4088 3.66391 38.809 4.86054 38.2726C7.25037 37.2013 10.6571 36.5 14.5 36.5C18.3429 36.5 21.7496 37.2013 24.1395 38.2726C25.3361 38.809 26.2124 39.4088 26.7695 39.9993C27.3191 40.5818 27.5 41.0862 27.5 41.5Z" stroke="#112958" stroke-width="3"/>
<path d="M26.5 13.9535C26.5 17.5532 25.053 24.3682 22.6551 30.3048C21.4606 33.2621 20.0704 35.898 18.5816 37.7668C17.0522 39.6865 15.6626 40.5 14.5 40.5C13.3374 40.5 11.9478 39.6865 10.4184 37.7668C8.92957 35.898 7.53938 33.2621 6.34489 30.3048C3.94698 24.3682 2.5 17.5532 2.5 13.9535C2.5 7.02852 7.91891 1.5 14.5 1.5C21.0811 1.5 26.5 7.02852 26.5 13.9535Z" fill="white" stroke="#112958" stroke-width="3"/>
<circle cx="14.5" cy="13.5" r="4" stroke="#FF498B" stroke-width="3"/>
</svg>
