<svg width="48" height="48" viewBox="0 0 48 48" fill="none" xmlns="http://www.w3.org/2000/svg">
<rect width="48" height="48" fill="white"/>
<path d="M6.88304 20.5H41.117C42.193 20.5 43.1484 21.1886 43.4887 22.2094L44.822 26.2094C45.3616 27.8283 44.1567 29.5 42.4503 29.5H5.54971C3.84331 29.5 2.63839 27.8283 3.178 26.2094L4.51133 22.2094C4.85161 21.1886 5.80696 20.5 6.88304 20.5Z" fill="white" stroke="#112958" stroke-width="3"/>
<line x1="16.5" y1="12.5" x2="16.5" y2="19.5" stroke="#112958" stroke-width="3" stroke-linecap="round"/>
<line x1="32.5" y1="12.5" x2="32.5" y2="19.5" stroke="#112958" stroke-width="3" stroke-linecap="round"/>
<mask id="path-5-inside-1" fill="white">
<path d="M42 28C42.5523 28 43 28.4477 43 29L43 42C43 44.2091 41.2091 46 39 46V46C36.7909 46 35 44.2091 35 42L35 29C35 28.4477 35.4477 28 36 28L42 28Z"/>
</mask>
<path d="M42 28C42.5523 28 43 28.4477 43 29L43 42C43 44.2091 41.2091 46 39 46V46C36.7909 46 35 44.2091 35 42L35 29C35 28.4477 35.4477 28 36 28L42 28Z" fill="white" stroke="#112958" stroke-width="6" mask="url(#path-5-inside-1)"/>
<mask id="path-6-inside-2" fill="white">
<path d="M20 4C20.5523 4 21 4.44772 21 5L21 9.5C21 11.9853 18.9853 14 16.5 14V14C14.0147 14 12 11.9853 12 9.5L12 5C12 4.44772 12.4477 4 13 4L20 4Z"/>
</mask>
<path d="M20 4C20.5523 4 21 4.44772 21 5L21 9.5C21 11.9853 18.9853 14 16.5 14V14C14.0147 14 12 11.9853 12 9.5L12 5C12 4.44772 12.4477 4 13 4L20 4Z" fill="white" stroke="#FF498B" stroke-width="6" mask="url(#path-6-inside-2)"/>
<mask id="path-7-inside-3" fill="white">
<path d="M36 4C36.5523 4 37 4.44772 37 5L37 9.5C37 11.9853 34.9853 14 32.5 14V14C30.0147 14 28 11.9853 28 9.5L28 5C28 4.44772 28.4477 4 29 4L36 4Z"/>
</mask>
<path d="M36 4C36.5523 4 37 4.44772 37 5L37 9.5C37 11.9853 34.9853 14 32.5 14V14C30.0147 14 28 11.9853 28 9.5L28 5C28 4.44772 28.4477 4 29 4L36 4Z" fill="white" stroke="#FF498B" stroke-width="6" mask="url(#path-7-inside-3)"/>
<mask id="path-8-inside-4" fill="white">
<path d="M13 28C13.5523 28 14 28.4477 14 29L14 42C14 44.2091 12.2091 46 10 46V46C7.79086 46 6 44.2091 6 42L6 29C6 28.4477 6.44772 28 7 28L13 28Z"/>
</mask>
<path d="M13 28C13.5523 28 14 28.4477 14 29L14 42C14 44.2091 12.2091 46 10 46V46C7.79086 46 6 44.2091 6 42L6 29C6 28.4477 6.44772 28 7 28L13 28Z" fill="white" stroke="#112958" stroke-width="6" mask="url(#path-8-inside-4)"/>
</svg>
